<svg width="182" height="35" viewBox="0 0 182 35" fill="none" xmlns="http://www.w3.org/2000/svg">
<path d="M27.0601 11.5316H28.7698C29.203 11.5316 29.5543 11.386 29.8225 11.0944C30.091 10.803 30.2299 10.4128 30.2396 9.92395V6.67983C30.2396 6.1912 30.105 5.80079 29.8365 5.50939C29.5683 5.21799 29.2079 5.07216 28.7555 5.07216H27.0601C27.0129 5.07216 26.9892 5.09584 26.9892 5.14266V11.4611C26.9892 11.5082 27.0129 11.5316 27.0601 11.5316ZM25.0463 13.1888C25.0132 13.156 24.9967 13.1161 24.9967 13.0691V3.53472C24.9967 3.4879 25.0132 3.44808 25.0463 3.41499C25.0792 3.38216 25.1191 3.36548 25.1663 3.36548H28.6992C29.4057 3.36548 30.025 3.49032 30.5574 3.73921C31.0896 3.98863 31.5017 4.33869 31.7937 4.79018C32.0857 5.2414 32.232 5.76312 32.232 6.3556V10.2482C32.232 10.8407 32.0857 11.3624 31.7937 11.8136C31.5017 12.2651 31.0896 12.6154 30.5574 12.8646C30.025 13.1137 29.4057 13.2383 28.6992 13.2383H25.1663C25.1191 13.2383 25.0792 13.2219 25.0463 13.1888Z" fill="#00B1E2"/>
<path d="M37.2058 11.5456C37.4883 11.3295 37.6299 11.0521 37.6299 10.7137V10.2059C37.6299 10.1588 37.6061 10.1354 37.559 10.1354H36.5418C36.1178 10.1354 35.7857 10.2153 35.5455 10.3752C35.3053 10.5353 35.185 10.7607 35.185 11.0521C35.185 11.3059 35.2745 11.5058 35.4535 11.6516C35.6325 11.7975 35.8727 11.8701 36.1744 11.8701C36.5793 11.8701 36.9233 11.7622 37.2058 11.5456ZM38.096 6.19336C38.5766 6.40484 38.9511 6.69409 39.2196 7.06082C39.4881 7.42756 39.6223 7.83654 39.6223 8.28776V13.0691C39.6223 13.1161 39.6056 13.156 39.5727 13.1888C39.5396 13.2219 39.4997 13.2383 39.4528 13.2383H37.7994C37.752 13.2383 37.7121 13.2219 37.6792 13.1888C37.646 13.156 37.6299 13.1161 37.6299 13.0691V12.6036C37.6299 12.5753 37.6204 12.5565 37.6016 12.5471C37.5827 12.5379 37.5638 12.5471 37.5449 12.5753C37.1492 13.0925 36.5135 13.351 35.6374 13.351C34.9022 13.351 34.3089 13.1726 33.8568 12.8151C33.4047 12.4577 33.1785 11.9314 33.1785 11.2354C33.1785 10.5116 33.433 9.94978 33.9417 9.54995C34.4504 9.15066 35.1759 8.95074 36.1178 8.95074H37.559C37.6061 8.95074 37.6299 8.92733 37.6299 8.88024V8.57001C37.6299 8.25951 37.5355 8.01762 37.3471 7.84353C37.1586 7.66972 36.8761 7.58254 36.4992 7.58254C36.2073 7.58254 35.9647 7.63447 35.7716 7.73779C35.5783 7.84138 35.4535 7.98695 35.3972 8.17502C35.3689 8.27861 35.3071 8.32543 35.2136 8.31601L33.5036 8.09027C33.3904 8.0717 33.3387 8.02919 33.3481 7.96354C33.3856 7.56855 33.5435 7.21123 33.8215 6.89158C34.0992 6.57193 34.4666 6.32278 34.9238 6.14412C35.3805 5.96546 35.8916 5.87613 36.4569 5.87613C37.0691 5.87613 37.6156 5.98187 38.096 6.19336Z" fill="#00B1E2"/>
<path d="M44.7023 7.5333C44.6692 7.56639 44.6293 7.58254 44.5821 7.58254H43.2256C43.1784 7.58254 43.1549 7.60621 43.1549 7.65303V10.6432C43.1549 10.9534 43.2186 11.184 43.3458 11.3341C43.4728 11.4848 43.6779 11.5599 43.9604 11.5599H44.4266C44.4737 11.5599 44.5136 11.5763 44.5468 11.6091C44.5797 11.6422 44.5964 11.6823 44.5964 11.7291V13.069C44.5964 13.1726 44.5398 13.2334 44.4266 13.2523C44.0311 13.2711 43.7486 13.2805 43.579 13.2805C42.7969 13.2805 42.2127 13.1514 41.8267 12.8925C41.4404 12.6342 41.2425 12.1475 41.2334 11.4329V7.65303C41.2334 7.60621 41.2096 7.58254 41.1625 7.58254H40.3572C40.3098 7.58254 40.2699 7.56639 40.237 7.5333C40.2038 7.50047 40.1874 7.46065 40.1874 7.41329V6.1581C40.1874 6.11129 40.2038 6.0712 40.237 6.0381C40.2699 6.00527 40.3098 5.98886 40.3572 5.98886H41.1625C41.2096 5.98886 41.2334 5.96545 41.2334 5.91837V4.23994C41.2334 4.19312 41.2495 4.1533 41.2827 4.1202C41.3156 4.08738 41.3555 4.07069 41.4027 4.07069H42.9854C43.0325 4.07069 43.0724 4.08738 43.1056 4.1202C43.1385 4.1533 43.1549 4.19312 43.1549 4.23994V5.91837C43.1549 5.96545 43.1784 5.98886 43.2256 5.98886H44.5821C44.6293 5.98886 44.6692 6.00527 44.7023 6.0381C44.7352 6.0712 44.7517 6.11129 44.7517 6.1581V7.41329C44.7517 7.46065 44.7352 7.50047 44.7023 7.5333Z" fill="#00B1E2"/>
<path d="M49.5985 11.5456C49.881 11.3295 50.0226 11.0521 50.0226 10.7137V10.2059C50.0226 10.1588 49.9988 10.1354 49.9517 10.1354H48.9343C48.5105 10.1354 48.1784 10.2153 47.9382 10.3752C47.698 10.5353 47.5777 10.7607 47.5777 11.0521C47.5777 11.3059 47.6672 11.5058 47.8462 11.6516C48.025 11.7975 48.2654 11.8701 48.5671 11.8701C48.972 11.8701 49.316 11.7622 49.5985 11.5456ZM50.4887 6.19336C50.9693 6.40484 51.3438 6.69409 51.612 7.06082C51.8805 7.42756 52.015 7.83654 52.015 8.28776V13.0691C52.015 13.1161 51.9983 13.156 51.9654 13.1888C51.9323 13.2219 51.8924 13.2383 51.8452 13.2383H50.1919C50.1447 13.2383 50.1048 13.2219 50.0719 13.1888C50.0387 13.156 50.0226 13.1161 50.0226 13.0691V12.6036C50.0226 12.5753 50.0131 12.5565 49.9943 12.5471C49.9754 12.5379 49.9565 12.5471 49.9376 12.5753C49.5419 13.0925 48.9062 13.351 48.0301 13.351C47.2952 13.351 46.7016 13.1726 46.2495 12.8151C45.7974 12.4577 45.5712 11.9314 45.5712 11.2354C45.5712 10.5116 45.8257 9.94978 46.3344 9.54995C46.8431 9.15066 47.5683 8.95074 48.5105 8.95074H49.9517C49.9988 8.95074 50.0226 8.92733 50.0226 8.88024V8.57001C50.0226 8.25951 49.9282 8.01762 49.7398 7.84353C49.5513 7.66972 49.2685 7.58254 48.8919 7.58254C48.6 7.58254 48.3574 7.63447 48.1643 7.73779C47.971 7.84138 47.8462 7.98695 47.7899 8.17502C47.7616 8.27861 47.7001 8.32543 47.606 8.31601L45.8961 8.09027C45.7831 8.0717 45.7314 8.02919 45.7408 7.96354C45.7783 7.56855 45.9362 7.21123 46.2142 6.89158C46.4918 6.57193 46.8593 6.32278 47.3162 6.14412C47.7732 5.96546 48.2843 5.87613 48.8496 5.87613C49.4618 5.87613 50.0083 5.98187 50.4887 6.19336Z" fill="#00B1E2"/>
<path d="M0.948669 12.3854C1.08508 12.4101 1.20909 12.4351 1.3703 12.4596C8.30556 13.8343 18.6276 12.0141 19.9553 8.65827C20.9972 5.94663 15.1788 4.02711 8.37996 4.26255C8.24356 4.26255 8.11955 4.26255 7.98314 4.2873C11.6058 4.64623 14.8685 6.08277 13.5659 8.32409C12.139 10.7758 6.09714 12.4101 0.948669 12.3854Z" fill="#00B1E2"/>
<path d="M55.2791 12.9773C54.7796 12.7187 54.3911 12.352 54.1135 11.8771C53.8352 11.4025 53.6964 10.8546 53.6964 10.2342V6.35559C53.6964 5.74455 53.8352 5.20399 54.1135 4.73367C54.3911 4.26361 54.7796 3.8993 55.2791 3.64072C55.7784 3.38215 56.3577 3.25273 57.0171 3.25273C57.6762 3.25273 58.2558 3.37973 58.7551 3.63346C59.2544 3.88746 59.6431 4.24478 59.9211 4.70542C60.1987 5.16632 60.3378 5.69746 60.3378 6.29909C60.3378 6.34644 60.3235 6.38385 60.2955 6.4121C60.2672 6.44008 60.2343 6.45434 60.1966 6.45434L59.476 6.49658C59.3816 6.49658 59.3344 6.45434 59.3344 6.36958V6.32734C59.3344 5.65979 59.1226 5.12623 58.6988 4.72667C58.2747 4.32711 57.714 4.12719 57.0171 4.12719C56.32 4.12719 55.7595 4.32953 55.3357 4.73367C54.9117 5.13807 54.6995 5.66948 54.6995 6.32734V10.2764C54.6995 10.9345 54.9117 11.466 55.3357 11.8701C55.7595 12.2745 56.32 12.4766 57.0171 12.4766C57.714 12.4766 58.2747 12.2769 58.6988 11.8771C59.1226 11.4775 59.3344 10.9442 59.3344 10.2764V10.2482C59.3344 10.1637 59.3816 10.1212 59.476 10.1212L60.1966 10.1637C60.2907 10.1637 60.3378 10.2059 60.3378 10.2904C60.3378 10.9017 60.1987 11.4399 59.9211 11.9053C59.6431 12.3708 59.2544 12.7306 58.7551 12.9843C58.2558 13.2383 57.6762 13.365 57.0171 13.365C56.3577 13.365 55.7784 13.2359 55.2791 12.9773Z" fill="white"/>
<path d="M61.8216 13.083V6.2286C61.8216 6.1347 61.8685 6.08761 61.9629 6.08761H62.6835C62.7776 6.08761 62.825 6.1347 62.825 6.2286V13.083C62.825 13.1772 62.7776 13.224 62.6835 13.224H61.9629C61.8685 13.224 61.8216 13.1772 61.8216 13.083ZM61.7933 4.57842C61.6423 4.42829 61.5671 4.23994 61.5671 4.01446C61.5671 3.77957 61.6423 3.58907 61.7933 3.44324C61.9437 3.2974 62.1324 3.22449 62.3586 3.22449C62.5845 3.22449 62.773 3.2974 62.9237 3.44324C63.0744 3.58907 63.1499 3.77957 63.1499 4.01446C63.1499 4.23994 63.0744 4.42829 62.9237 4.57842C62.773 4.7291 62.5845 4.80417 62.3586 4.80417C62.1324 4.80417 61.9437 4.7291 61.7933 4.57842Z" fill="white"/>
<path d="M67.926 6.93382H66.3293C66.2916 6.93382 66.2727 6.95265 66.2727 6.99032V11.1509C66.2727 11.6021 66.3738 11.9196 66.5765 12.1028C66.779 12.2861 67.0971 12.3778 67.5303 12.3778H67.8837C67.9778 12.3778 68.025 12.4249 68.025 12.5188V13.097C68.025 13.1912 67.9778 13.2383 67.8837 13.2383C67.7708 13.2474 67.5961 13.2523 67.3607 13.2523C66.6825 13.2523 66.1689 13.1253 65.8206 12.8716C65.4718 12.6176 65.2976 12.1475 65.2976 11.4611V6.99032C65.2976 6.95265 65.2787 6.93382 65.2413 6.93382H64.3791C64.2848 6.93382 64.2379 6.887 64.2379 6.79283V6.24286C64.2379 6.14896 64.2848 6.1016 64.3791 6.1016H65.2413C65.2787 6.1016 65.2976 6.08303 65.2976 6.04537V4.40918C65.2976 4.31527 65.3448 4.26819 65.4389 4.26819H66.1314C66.2255 4.26819 66.2727 4.31527 66.2727 4.40918V6.04537C66.2727 6.08303 66.2916 6.1016 66.3293 6.1016H67.926C68.0201 6.1016 68.0673 6.14896 68.0673 6.24286V6.79283C68.0673 6.887 68.0201 6.93382 67.926 6.93382Z" fill="white"/>
<path d="M70.5752 7.22306C70.2692 7.4628 70.0689 7.78487 69.9749 8.18901C69.9185 8.3865 69.8808 8.70642 69.8616 9.14823C69.8616 9.1859 69.8808 9.20446 69.9185 9.20446H73.5781C73.6158 9.20446 73.6347 9.1859 73.6347 9.14823C73.6158 8.72499 73.5875 8.42417 73.55 8.24551C73.4463 7.82227 73.2368 7.48621 72.9211 7.23706C72.6054 6.98817 72.2075 6.86332 71.7271 6.86332C71.2653 6.86332 70.8815 6.98333 70.5752 7.22306ZM74.6238 9.45846V9.90968C74.6238 10.0039 74.5766 10.0507 74.4825 10.0507H69.9185C69.8808 10.0507 69.8616 10.0698 69.8616 10.1072C69.8808 10.6243 69.9088 10.9582 69.9466 11.1086C70.0498 11.5316 70.2717 11.8655 70.6108 12.1098C70.9499 12.3544 71.3831 12.4766 71.9107 12.4766C72.3065 12.4766 72.6548 12.3872 72.9564 12.2086C73.2578 12.0302 73.4934 11.7762 73.663 11.4471C73.7196 11.3624 73.7854 11.3438 73.8609 11.3906L74.4119 11.7151C74.4871 11.7622 74.506 11.8278 74.4685 11.9123C74.2329 12.3638 73.8795 12.7187 73.4088 12.9773C72.9376 13.2359 72.396 13.365 71.7835 13.365C71.1146 13.3556 70.5542 13.1958 70.1021 12.8855C69.65 12.5753 69.3249 12.1429 69.127 11.5881C68.9575 11.1366 68.8728 10.4879 68.8728 9.64169C68.8728 9.24697 68.8798 8.9249 68.8938 8.67575C68.9081 8.42659 68.9432 8.20327 68.9998 8.00578C69.1599 7.39473 69.4826 6.90557 69.9678 6.53883C70.4528 6.17209 71.0392 5.98886 71.7271 5.98886C72.5841 5.98886 73.2438 6.20519 73.7053 6.63758C74.1669 7.07024 74.4542 7.68128 74.5675 8.47099C74.6049 8.7344 74.6238 9.06347 74.6238 9.45846Z" fill="white"/>
<path d="M16.134 12.7271C14.9306 20.0082 8.62826 15.6618 7.13936 10.5974C4.98055 5.33477 6.90375 -1.42604 12.3005 2.53622C7.83408 0.493202 7.36258 6.4121 9.27337 10.6222C10.8612 14.1389 14.3102 16.4049 15.9728 12.7766C16.0472 12.7521 16.1092 12.7521 16.134 12.7271Z" fill="white"/>
<path d="M35.1008 18.4977C35.1737 18.3835 35.2758 18.3265 35.4071 18.3265H37.4196C37.4926 18.3265 37.5545 18.3514 37.6056 18.4014C37.6566 18.4513 37.6821 18.5119 37.6821 18.5833V33.0535C37.6821 33.1248 37.6566 33.1855 37.6056 33.2354C37.5545 33.2854 37.4926 33.3103 37.4196 33.3103H35.4071C35.3342 33.3103 35.2722 33.2854 35.2212 33.2354C35.1701 33.1855 35.1445 33.1248 35.1445 33.0535V22.843C35.1445 22.8002 35.1264 22.7717 35.0899 22.7574C35.0535 22.7431 35.0279 22.7574 35.0133 22.8002L32.2789 26.9101C32.206 27.0242 32.1039 27.0813 31.9726 27.0813H30.9664C30.8351 27.0813 30.733 27.0242 30.6601 26.9101L27.9038 22.8216C27.8892 22.7788 27.8636 22.7645 27.8272 22.7788C27.7907 22.793 27.7725 22.8216 27.7725 22.8644V33.0535C27.7725 33.1248 27.747 33.1855 27.6959 33.2354C27.6449 33.2854 27.5829 33.3103 27.51 33.3103H25.4974C25.4245 33.3103 25.3625 33.2854 25.3115 33.2354C25.2604 33.1855 25.235 33.1248 25.235 33.0535V18.5833C25.235 18.5119 25.2604 18.4513 25.3115 18.4014C25.3625 18.3514 25.4245 18.3265 25.4974 18.3265H27.51C27.6413 18.3265 27.7434 18.3835 27.8163 18.4977L31.382 23.7849C31.4111 23.8134 31.4403 23.8277 31.4695 23.8277C31.4987 23.8277 31.5205 23.8134 31.5351 23.7849L35.1008 18.4977Z" fill="white"/>
<path d="M48.9699 26.6104C49.0283 26.9672 49.0574 27.3667 49.0574 27.8091L49.0356 28.4727C49.0356 28.6439 48.948 28.7296 48.773 28.7296H41.926C41.8531 28.7296 41.8166 28.7652 41.8166 28.8366C41.8604 29.3075 41.926 29.6286 42.0135 29.7998C42.3635 30.8273 43.2167 31.3482 44.5729 31.3624C45.5646 31.3624 46.3521 30.9628 46.9355 30.1637C46.9938 30.0781 47.0668 30.0353 47.1542 30.0353C47.2126 30.0353 47.2636 30.0566 47.3074 30.0995L48.6637 31.1912C48.7949 31.2911 48.8168 31.4052 48.7293 31.5337C48.2772 32.1616 47.6756 32.6467 46.9245 32.9892C46.1735 33.3317 45.3386 33.503 44.4198 33.503C43.2823 33.503 42.3161 33.2532 41.5213 32.7538C40.7265 32.2543 40.1468 31.5551 39.7822 30.656C39.4468 29.8855 39.2791 28.8152 39.2791 27.4452C39.2791 26.6175 39.3665 25.9468 39.5415 25.4331C39.8332 24.4342 40.3838 23.6457 41.1932 23.0677C42.0026 22.4898 42.976 22.2008 44.1135 22.2008C46.9865 22.2008 48.6053 23.6707 48.9699 26.6104ZM44.1135 24.3414C43.5739 24.3414 43.1255 24.4734 42.7682 24.7374C42.4109 25.0014 42.1594 25.3688 42.0135 25.8398C41.926 26.0824 41.8677 26.3963 41.8385 26.7816C41.8093 26.853 41.8385 26.8886 41.926 26.8886H46.3667C46.4396 26.8886 46.4761 26.853 46.4761 26.7816C46.4469 26.4248 46.4032 26.1538 46.3448 25.9682C46.2136 25.4545 45.9548 25.0549 45.5682 24.7695C45.1818 24.4841 44.6969 24.3414 44.1135 24.3414Z" fill="white"/>
<path d="M55.9963 24.1274C55.9963 24.1987 55.9707 24.2594 55.9197 24.3093C55.8686 24.3593 55.8067 24.3842 55.7337 24.3842H53.5024C53.4295 24.3842 53.3931 24.4199 53.3931 24.4913V29.65C53.3931 30.1923 53.5134 30.5847 53.7541 30.8273C53.9947 31.0698 54.3775 31.1912 54.9025 31.1912H55.5588C55.6317 31.1912 55.6937 31.2162 55.7447 31.2661C55.7957 31.316 55.8213 31.3767 55.8213 31.4481V33.0535C55.8213 33.2104 55.7337 33.3032 55.5588 33.3317L54.4212 33.3531C53.2691 33.3531 52.4087 33.1605 51.8399 32.7752C51.2711 32.3899 50.9795 31.6621 50.9649 30.5918V24.4913C50.9649 24.4199 50.9284 24.3842 50.8555 24.3842H49.6086C49.5357 24.3842 49.4737 24.3593 49.4227 24.3093C49.3716 24.2594 49.3461 24.1987 49.3461 24.1274V22.629C49.3461 22.5576 49.3716 22.497 49.4227 22.447C49.4737 22.3971 49.5357 22.3721 49.6086 22.3721H50.8555C50.9284 22.3721 50.9649 22.3364 50.9649 22.2651V19.7606C50.9649 19.6893 50.9904 19.6286 51.0415 19.5787C51.0925 19.5287 51.1545 19.5038 51.2274 19.5038H53.1305C53.2035 19.5038 53.2654 19.5287 53.3165 19.5787C53.3675 19.6286 53.3931 19.6893 53.3931 19.7606V22.2651C53.3931 22.3364 53.4295 22.3721 53.5024 22.3721H55.7337C55.8067 22.3721 55.8686 22.3971 55.9197 22.447C55.9707 22.497 55.9963 22.5576 55.9963 22.629V24.1274Z" fill="white"/>
<path d="M61.4214 22.2008C62.3402 22.2008 63.1495 22.3578 63.8495 22.6718C64.5496 22.9857 65.0892 23.4174 65.4683 23.9668C65.8475 24.5162 66.037 25.1406 66.037 25.8398V33.0535C66.037 33.1248 66.0118 33.1855 65.9607 33.2354C65.9096 33.2854 65.8475 33.3103 65.775 33.3103H63.7622C63.6891 33.3103 63.627 33.2854 63.5759 33.2354C63.5254 33.1855 63.4995 33.1248 63.4995 33.0535V32.3685C63.4995 32.3256 63.4853 32.3007 63.4555 32.2936C63.4264 32.2864 63.3973 32.2971 63.3682 32.3256C62.6538 33.0963 61.6183 33.4815 60.262 33.4815C59.1683 33.4815 58.2677 33.2104 57.5604 32.6682C56.853 32.1258 56.4994 31.3196 56.4994 30.2493C56.4994 29.1363 56.8968 28.2693 57.6916 27.6486C58.4864 27.0278 59.6058 26.7174 61.0495 26.7174H63.3902C63.4633 26.7174 63.4995 26.6817 63.4995 26.6104V26.0967C63.4995 25.5401 63.3319 25.1084 62.9965 24.8016C62.661 24.4948 62.1579 24.3414 61.487 24.3414C60.9329 24.3414 60.4844 24.4377 60.1417 24.6304C59.7989 24.823 59.5839 25.0906 59.4963 25.4331C59.4526 25.6043 59.3505 25.6757 59.1901 25.6472L57.0682 25.3903C56.9952 25.376 56.9333 25.351 56.8822 25.3154C56.8312 25.2797 56.8129 25.2333 56.8275 25.1762C56.9442 24.3057 57.4218 23.5922 58.2604 23.0357C59.099 22.4791 60.1526 22.2008 61.4214 22.2008ZM60.8964 31.5122C61.611 31.5122 62.2235 31.3267 62.7339 30.9557C63.2444 30.5847 63.4995 30.1137 63.4995 29.5429V28.5369C63.4995 28.4655 63.4633 28.4299 63.3902 28.4299H61.5526C60.7797 28.4299 60.1708 28.5726 59.726 28.858C59.2812 29.1434 59.0588 29.5501 59.0588 30.0781C59.0588 30.5347 59.2302 30.8879 59.5729 31.1376C59.9157 31.3874 60.3568 31.5122 60.8964 31.5122Z" fill="white"/>
<path d="M74.4156 18.5833C74.4156 18.5119 74.4409 18.4513 74.492 18.4014C74.5431 18.3514 74.6052 18.3265 74.6783 18.3265H76.6905C76.7636 18.3265 76.8257 18.3514 76.8762 18.4014C76.9273 18.4513 76.9532 18.5119 76.9532 18.5833V33.0535C76.9532 33.1248 76.9273 33.1855 76.8762 33.2354C76.8257 33.2854 76.7636 33.3103 76.6905 33.3103H74.6783C74.6052 33.3103 74.5431 33.2854 74.492 33.2354C74.4409 33.1855 74.4156 33.1248 74.4156 33.0535V32.4113C74.4156 32.3684 74.4008 32.3399 74.3716 32.3256C74.3425 32.3114 74.3134 32.3256 74.2843 32.3684C73.6425 33.1105 72.804 33.4815 71.7688 33.4815C70.7329 33.4815 69.8582 33.2176 69.1433 32.6895C68.429 32.1615 67.9114 31.4266 67.5905 30.4848C67.3278 29.6856 67.1964 28.7937 67.1964 27.8091C67.1964 26.7959 67.3207 25.9254 67.5685 25.1976C67.8894 24.2557 68.407 23.5209 69.1219 22.9928C69.8362 22.4649 70.7329 22.2008 71.8121 22.2008C72.8188 22.2008 73.6425 22.5576 74.2843 23.2711C74.3134 23.2996 74.3425 23.3103 74.3716 23.3032C74.4008 23.2961 74.4156 23.2711 74.4156 23.2283V18.5833ZM73.8903 30.3135C74.2261 29.7285 74.3936 28.9008 74.3936 27.8305C74.3936 26.7174 74.2112 25.8683 73.8469 25.2832C73.4529 24.6553 72.8991 24.3414 72.1841 24.3414C71.4401 24.3414 70.8572 24.6411 70.434 25.2405C69.9966 25.8683 69.778 26.7388 69.778 27.8519C69.778 28.8508 69.9526 29.6714 70.3027 30.3135C70.7109 30.9985 71.3307 31.341 72.1621 31.341C72.9062 31.341 73.482 30.9985 73.8903 30.3135Z" fill="white"/>
<path d="M82.8816 22.2008C83.8003 22.2008 84.6097 22.3578 85.3098 22.6718C86.0098 22.9857 86.5494 23.4174 86.9285 23.9668C87.3077 24.5162 87.4973 25.1406 87.4973 25.8398V33.0535C87.4973 33.1248 87.4714 33.1855 87.4203 33.2354C87.3692 33.2854 87.3077 33.3103 87.2346 33.3103H85.2218C85.1493 33.3103 85.0872 33.2854 85.0361 33.2354C84.985 33.1855 84.9597 33.1248 84.9597 33.0535V32.3685C84.9597 32.3256 84.9449 32.3007 84.9157 32.2936C84.8866 32.2864 84.8575 32.2971 84.8284 32.3256C84.1135 33.0963 83.0783 33.4815 81.7222 33.4815C80.6281 33.4815 79.7275 33.2104 79.0203 32.6682C78.3131 32.1258 77.9592 31.3196 77.9592 30.2493C77.9592 29.1363 78.3565 28.2693 79.1516 27.6486C79.9462 27.0278 81.0655 26.7174 82.5096 26.7174H84.8504C84.9229 26.7174 84.9597 26.6817 84.9597 26.6104V26.0967C84.9597 25.5401 84.7915 25.1084 84.4564 24.8016C84.1206 24.4948 83.6179 24.3414 82.9469 24.3414C82.3925 24.3414 81.9441 24.4377 81.6018 24.6304C81.2589 24.823 81.0441 25.0906 80.9561 25.4331C80.9128 25.6043 80.8105 25.6757 80.6501 25.6472L78.5279 25.3903C78.4555 25.376 78.3934 25.351 78.3423 25.3154C78.2911 25.2797 78.273 25.2333 78.2873 25.1762C78.4044 24.3057 78.8819 23.5922 79.7204 23.0357C80.5589 22.4791 81.6128 22.2008 82.8816 22.2008ZM82.3562 31.5122C83.0712 31.5122 83.6832 31.3267 84.1937 30.9557C84.7042 30.5847 84.9597 30.1137 84.9597 29.5429V28.5369C84.9597 28.4655 84.9229 28.4299 84.8504 28.4299H83.0129C82.2398 28.4299 81.6309 28.5726 81.1858 28.858C80.7413 29.1434 80.5188 29.5501 80.5188 30.0781C80.5188 30.5347 80.6902 30.8879 81.0331 31.1376C81.3754 31.3874 81.8166 31.5122 82.3562 31.5122Z" fill="white"/>
<path d="M94.6977 24.1274C94.6977 24.1987 94.6718 24.2594 94.6207 24.3093C94.5702 24.3593 94.5081 24.3842 94.435 24.3842H92.2035C92.131 24.3842 92.0941 24.4199 92.0941 24.4913V29.65C92.0941 30.1923 92.2145 30.5847 92.4552 30.8273C92.6959 31.0698 93.0789 31.1912 93.6036 31.1912H94.2603C94.3328 31.1912 94.3949 31.2162 94.446 31.2661C94.4971 31.316 94.5223 31.3767 94.5223 31.4481V33.0535C94.5223 33.2104 94.435 33.3032 94.2603 33.3317L93.1222 33.3531C91.9706 33.3531 91.1101 33.1605 90.5414 32.7752C89.9726 32.3899 89.6808 31.6621 89.666 30.5918V24.4913C89.666 24.4199 89.6297 24.3842 89.5566 24.3842H88.3099C88.2368 24.3842 88.1753 24.3593 88.1242 24.3093C88.0731 24.2594 88.0472 24.1987 88.0472 24.1274V22.629C88.0472 22.5576 88.0731 22.497 88.1242 22.447C88.1753 22.3971 88.2368 22.3721 88.3099 22.3721H89.5566C89.6297 22.3721 89.666 22.3364 89.666 22.2651V19.7606C89.666 19.6893 89.6918 19.6286 89.743 19.5787C89.7941 19.5287 89.8555 19.5038 89.9286 19.5038H91.8321C91.9046 19.5038 91.9667 19.5287 92.0178 19.5787C92.0689 19.6286 92.0941 19.6893 92.0941 19.7606V22.2651C92.0941 22.3364 92.131 22.3721 92.2035 22.3721H94.435C94.5081 22.3721 94.5702 22.3971 94.6207 22.447C94.6718 22.497 94.6977 22.5576 94.6977 22.629V24.1274Z" fill="white"/>
<path d="M100.123 22.2008C101.041 22.2008 101.851 22.3578 102.551 22.6718C103.251 22.9857 103.791 23.4174 104.17 23.9668C104.549 24.5162 104.738 25.1406 104.738 25.8398V33.0535C104.738 33.1248 104.713 33.1855 104.662 33.2354C104.611 33.2854 104.549 33.3103 104.476 33.3103H102.464C102.39 33.3103 102.328 33.2854 102.277 33.2354C102.226 33.1855 102.201 33.1248 102.201 33.0535V32.3685C102.201 32.3256 102.186 32.3007 102.157 32.2936C102.128 32.2864 102.099 32.2971 102.07 32.3256C101.355 33.0963 100.319 33.4815 98.9633 33.4815C97.8692 33.4815 96.9693 33.2104 96.2614 32.6682C95.5543 32.1258 95.2004 31.3196 95.2004 30.2493C95.2004 29.1363 95.5983 28.2693 96.3928 27.6486C97.1879 27.0278 98.3073 26.7174 99.7507 26.7174H102.092C102.165 26.7174 102.201 26.6817 102.201 26.6104V26.0967C102.201 25.5401 102.033 25.1084 101.698 24.8016C101.362 24.4948 100.859 24.3414 100.188 24.3414C99.6342 24.3414 99.1859 24.4377 98.843 24.6304C98.5001 24.823 98.2853 25.0906 98.1979 25.4331C98.1539 25.6043 98.0517 25.6757 97.8912 25.6472L95.7691 25.3903C95.6966 25.376 95.6345 25.351 95.5834 25.3154C95.5323 25.2797 95.5142 25.2333 95.529 25.1762C95.6455 24.3057 96.123 23.5922 96.9615 23.0357C97.8 22.4791 98.854 22.2008 100.123 22.2008ZM99.5974 31.5122C100.312 31.5122 100.925 31.3267 101.435 30.9557C101.945 30.5847 102.201 30.1137 102.201 29.5429V28.5369C102.201 28.4655 102.165 28.4299 102.092 28.4299H100.254C99.4809 28.4299 98.8721 28.5726 98.4276 28.858C97.9825 29.1434 97.7599 29.5501 97.7599 30.0781C97.7599 30.5347 97.9314 30.8879 98.2743 31.1376C98.6172 31.3874 99.0578 31.5122 99.5974 31.5122Z" fill="white"/>
<path d="M114.648 33.4815C113.51 33.4815 112.519 33.3032 111.673 32.9464C110.827 32.5897 110.174 32.0902 109.715 31.4481C109.256 30.8058 109.026 30.0495 109.026 29.1791V28.6439C109.026 28.5726 109.051 28.5119 109.102 28.4619C109.154 28.412 109.216 28.387 109.289 28.387H111.236C111.308 28.387 111.37 28.412 111.421 28.4619C111.472 28.5119 111.498 28.5726 111.498 28.6439V29.0506C111.498 29.707 111.797 30.2529 112.395 30.6881C112.993 31.1234 113.809 31.341 114.845 31.341C115.735 31.341 116.405 31.1555 116.857 30.7845C117.31 30.4134 117.535 29.9354 117.535 29.3503C117.535 28.9507 117.412 28.6118 117.164 28.3335C116.916 28.0552 116.562 27.802 116.103 27.5736C115.644 27.3453 114.954 27.0599 114.036 26.7174C113 26.3464 112.161 25.9968 111.52 25.6685C110.878 25.3403 110.342 24.8944 109.912 24.3307C109.482 23.767 109.267 23.0642 109.267 22.2223C109.267 20.9665 109.733 19.9747 110.667 19.2469C111.6 18.5191 112.847 18.1552 114.407 18.1552C115.501 18.1552 116.467 18.3407 117.306 18.7117C118.145 19.0828 118.797 19.6001 119.263 20.2637C119.731 20.9272 119.964 21.6942 119.964 22.5648V22.9286C119.964 23 119.938 23.0606 119.887 23.1106C119.836 23.1605 119.774 23.1855 119.702 23.1855H117.733C117.66 23.1855 117.597 23.1605 117.546 23.1106C117.495 23.0606 117.47 23 117.47 22.9286V22.6931C117.47 22.0225 117.189 21.4552 116.628 20.9914C116.066 20.5277 115.29 20.2958 114.298 20.2958C113.496 20.2958 112.872 20.4599 112.427 20.7881C111.983 21.1163 111.76 21.5801 111.76 22.1794C111.76 22.6076 111.877 22.9572 112.11 23.2283C112.344 23.4994 112.694 23.7456 113.16 23.9668C113.628 24.188 114.349 24.4698 115.327 24.8123C116.362 25.1976 117.189 25.5473 117.809 25.8612C118.429 26.1751 118.961 26.6139 119.406 27.1776C119.851 27.7413 120.074 28.4441 120.074 29.2861C120.074 30.5704 119.588 31.5907 118.618 32.3471C117.649 33.1034 116.325 33.4815 114.648 33.4815Z" fill="white"/>
<path d="M125.958 33.4815C124.835 33.4815 123.865 33.1997 123.048 32.6361C122.232 32.0724 121.663 31.3125 121.342 30.3563C121.109 29.7142 120.992 28.858 120.992 27.7877C120.992 26.7603 121.109 25.9182 121.342 25.2618C121.648 24.32 122.213 23.5743 123.037 23.0249C123.861 22.4755 124.835 22.2008 125.958 22.2008C127.095 22.2008 128.087 22.4791 128.933 23.0357C129.778 23.5922 130.34 24.2915 130.617 25.1334C130.69 25.3617 130.741 25.5901 130.77 25.8184V25.8612C130.77 26.0039 130.69 26.0895 130.53 26.118L128.561 26.3963H128.517C128.386 26.3963 128.298 26.3249 128.255 26.1823C128.255 26.1109 128.247 26.0539 128.233 26.011C128.204 25.8969 128.175 25.797 128.145 25.7113C128.014 25.3118 127.751 24.9836 127.357 24.7267C126.964 24.4698 126.498 24.3414 125.958 24.3414C125.403 24.3414 124.933 24.4805 124.547 24.7588C124.161 25.0371 123.901 25.4188 123.77 25.904C123.624 26.3607 123.551 26.9957 123.551 27.8091C123.551 28.5939 123.617 29.229 123.748 29.7142C123.894 30.2136 124.157 30.6097 124.536 30.9022C124.915 31.1947 125.389 31.341 125.958 31.341C126.512 31.341 126.989 31.2019 127.39 30.9236C127.792 30.6453 128.05 30.2707 128.167 29.7998C128.182 29.7713 128.189 29.7356 128.189 29.6928C128.204 29.6785 128.211 29.6571 128.211 29.6286C128.255 29.4573 128.356 29.386 128.517 29.4145L130.486 29.7142C130.559 29.7285 130.621 29.7606 130.672 29.8105C130.723 29.8605 130.741 29.9283 130.726 30.0138C130.683 30.2422 130.646 30.4063 130.617 30.5062C130.34 31.4195 129.778 32.1437 128.933 32.6789C128.087 33.214 127.095 33.4815 125.958 33.4815Z" fill="white"/>
<path d="M137.18 22.2008C138.361 22.2008 139.306 22.5433 140.013 23.2283C140.72 23.9133 141.074 24.848 141.074 26.0324V33.0535C141.074 33.1248 141.049 33.1855 140.997 33.2354C140.946 33.2854 140.884 33.3103 140.811 33.3103H138.799C138.726 33.3103 138.664 33.2854 138.613 33.2354C138.561 33.1855 138.536 33.1248 138.536 33.0535V26.5462C138.536 25.8897 138.347 25.3582 137.968 24.9515C137.588 24.5447 137.085 24.3414 136.458 24.3414C135.831 24.3414 135.324 24.5412 134.938 24.9408C134.551 25.3403 134.358 25.8683 134.358 26.5247V33.0535C134.358 33.1248 134.332 33.1855 134.282 33.2354C134.23 33.2854 134.168 33.3103 134.095 33.3103H132.083C132.01 33.3103 131.948 33.2854 131.897 33.2354C131.846 33.1855 131.82 33.1248 131.82 33.0535V18.5833C131.82 18.5119 131.846 18.4513 131.897 18.4014C131.948 18.3514 132.01 18.3265 132.083 18.3265H134.095C134.168 18.3265 134.23 18.3514 134.282 18.4014C134.332 18.4513 134.358 18.5119 134.358 18.5833V23.3139C134.358 23.3567 134.373 23.3853 134.402 23.3995C134.431 23.4138 134.453 23.3995 134.467 23.3567C135.065 22.5861 135.97 22.2008 137.18 22.2008Z" fill="white"/>
<path d="M151.969 26.6104C152.028 26.9672 152.057 27.3667 152.057 27.8091L152.035 28.4727C152.035 28.6439 151.948 28.7296 151.772 28.7296H144.925C144.853 28.7296 144.816 28.7652 144.816 28.8366C144.86 29.3075 144.925 29.6286 145.013 29.7998C145.363 30.8273 146.216 31.3482 147.572 31.3624C148.564 31.3624 149.351 30.9628 149.935 30.1637C149.993 30.0781 150.066 30.0353 150.154 30.0353C150.212 30.0353 150.263 30.0566 150.307 30.0995L151.663 31.1912C151.794 31.2911 151.816 31.4052 151.728 31.5337C151.277 32.1616 150.675 32.6467 149.924 32.9892C149.173 33.3317 148.338 33.503 147.419 33.503C146.282 33.503 145.315 33.2532 144.521 32.7538C143.726 32.2543 143.146 31.5551 142.782 30.656C142.446 29.8855 142.278 28.8152 142.278 27.4452C142.278 26.6175 142.366 25.9468 142.541 25.4331C142.833 24.4342 143.384 23.6457 144.193 23.0677C145.002 22.4898 145.975 22.2008 147.113 22.2008C149.986 22.2008 151.605 23.6707 151.969 26.6104ZM147.113 24.3414C146.573 24.3414 146.125 24.4734 145.768 24.7374C145.411 25.0014 145.159 25.3688 145.013 25.8398C144.925 26.0824 144.867 26.3963 144.838 26.7816C144.809 26.853 144.838 26.8886 144.925 26.8886H149.366C149.439 26.8886 149.476 26.853 149.476 26.7816C149.447 26.4248 149.403 26.1538 149.344 25.9682C149.213 25.4545 148.954 25.0549 148.568 24.7695C148.182 24.4841 147.696 24.3414 147.113 24.3414Z" fill="white"/>
<path d="M165.248 22.2008C166.371 22.2008 167.249 22.5326 167.884 23.1962C168.518 23.8598 168.836 24.7838 168.836 25.9682V33.0535C168.836 33.1248 168.81 33.1855 168.759 33.2354C168.708 33.2854 168.646 33.3103 168.573 33.3103H166.582C166.509 33.3103 166.448 33.2854 166.397 33.2354C166.345 33.1855 166.32 33.1248 166.32 33.0535V26.4819C166.32 25.8255 166.141 25.3047 165.784 24.9193C165.427 24.5341 164.949 24.3414 164.351 24.3414C163.753 24.3414 163.264 24.5341 162.885 24.9193C162.506 25.3047 162.317 25.8184 162.317 26.4606V33.0535C162.317 33.1248 162.291 33.1855 162.24 33.2354C162.189 33.2854 162.127 33.3103 162.054 33.3103H160.064C159.991 33.3103 159.929 33.2854 159.877 33.2354C159.826 33.1855 159.801 33.1248 159.801 33.0535V26.4819C159.801 25.8255 159.619 25.3047 159.254 24.9193C158.889 24.5341 158.408 24.3414 157.81 24.3414C157.256 24.3414 156.8 24.4984 156.443 24.8123C156.086 25.1263 155.878 25.5544 155.819 26.0967V33.0535C155.819 33.1248 155.794 33.1855 155.743 33.2354C155.692 33.2854 155.63 33.3103 155.557 33.3103H153.545C153.471 33.3103 153.409 33.2854 153.358 33.2354C153.308 33.1855 153.282 33.1248 153.282 33.0535V22.629C153.282 22.5576 153.308 22.497 153.358 22.447C153.409 22.3971 153.471 22.3721 153.545 22.3721H155.557C155.63 22.3721 155.692 22.3971 155.743 22.447C155.794 22.497 155.819 22.5576 155.819 22.629V23.3354C155.819 23.3782 155.834 23.4067 155.863 23.421C155.893 23.4352 155.922 23.421 155.951 23.3782C156.272 22.9786 156.669 22.6825 157.143 22.4898C157.617 22.2972 158.145 22.2008 158.729 22.2008C159.444 22.2008 160.071 22.3435 160.61 22.629C161.15 22.9144 161.565 23.3282 161.857 23.8705C161.901 23.9276 161.952 23.9276 162.011 23.8705C162.331 23.2996 162.776 22.8787 163.345 22.6076C163.913 22.3364 164.548 22.2008 165.248 22.2008Z" fill="white"/>
<path d="M174.589 22.2008C175.508 22.2008 176.317 22.3578 177.017 22.6718C177.717 22.9857 178.257 23.4174 178.636 23.9668C179.015 24.5162 179.205 25.1406 179.205 25.8398V33.0535C179.205 33.1248 179.179 33.1855 179.128 33.2354C179.077 33.2854 179.015 33.3103 178.942 33.3103H176.93C176.857 33.3103 176.794 33.2854 176.743 33.2354C176.692 33.1855 176.667 33.1248 176.667 33.0535V32.3685C176.667 32.3256 176.652 32.3007 176.623 32.2936C176.594 32.2864 176.565 32.2971 176.536 32.3256C175.821 33.0963 174.786 33.4815 173.429 33.4815C172.335 33.4815 171.435 33.2104 170.728 32.6682C170.02 32.1258 169.667 31.3196 169.667 30.2493C169.667 29.1363 170.064 28.2693 170.859 27.6486C171.654 27.0278 172.773 26.7174 174.217 26.7174H176.558C176.631 26.7174 176.667 26.6817 176.667 26.6104V26.0967C176.667 25.5401 176.499 25.1084 176.164 24.8016C175.828 24.4948 175.325 24.3414 174.654 24.3414C174.1 24.3414 173.652 24.4377 173.309 24.6304C172.966 24.823 172.751 25.0906 172.664 25.4331C172.62 25.6043 172.518 25.6757 172.357 25.6472L170.235 25.3903C170.163 25.376 170.101 25.351 170.049 25.3154C169.998 25.2797 169.98 25.2333 169.995 25.1762C170.112 24.3057 170.589 23.5922 171.428 23.0357C172.266 22.4791 173.32 22.2008 174.589 22.2008ZM174.063 31.5122C174.778 31.5122 175.391 31.3267 175.902 30.9557C176.411 30.5847 176.667 30.1137 176.667 29.5429V28.5369C176.667 28.4655 176.631 28.4299 176.558 28.4299H174.72C173.947 28.4299 173.338 28.5726 172.894 28.858C172.449 29.1434 172.226 29.5501 172.226 30.0781C172.226 30.5347 172.397 30.8879 172.74 31.1376C173.083 31.3874 173.524 31.5122 174.063 31.5122Z" fill="white"/>
</svg>
