<?xml version="1.0" encoding="UTF-8" standalone="no"?>
<!DOCTYPE svg PUBLIC "-//W3C//DTD SVG 1.1//EN" "http://www.w3.org/Graphics/SVG/1.1/DTD/svg11.dtd">
<svg width="2813" height="542" viewBox="0 0 2813 542" version="1.1" xmlns="http://www.w3.org/2000/svg" xmlns:xlink="http://www.w3.org/1999/xlink" xml:space="preserve" xmlns:serif="http://www.serif.com/" style="fill-rule:evenodd;clip-rule:evenodd;stroke-linejoin:round;stroke-miterlimit:2;">
    <g transform="matrix(4.16667,0,0,4.16667,0,0)">
        <path d="M100.378,42.858L106.72,42.858C108.327,42.858 109.63,42.317 110.625,41.233C111.621,40.15 112.136,38.7 112.172,36.883L112.172,24.826C112.172,23.01 111.673,21.559 110.677,20.476C109.682,19.393 108.345,18.851 106.667,18.851L100.378,18.851C100.203,18.851 100.115,18.939 100.115,19.113L100.115,42.596C100.115,42.771 100.203,42.858 100.378,42.858ZM92.908,49.017C92.785,48.895 92.724,48.747 92.724,48.572L92.724,13.137C92.724,12.963 92.785,12.815 92.908,12.692C93.03,12.57 93.178,12.508 93.353,12.508L106.458,12.508C109.079,12.508 111.376,12.972 113.351,13.897C115.325,14.824 116.854,16.125 117.937,17.803C119.02,19.48 119.563,21.419 119.563,23.621L119.563,38.088C119.563,40.29 119.02,42.229 117.937,43.906C116.854,45.584 115.325,46.886 113.351,47.812C111.376,48.738 109.079,49.201 106.458,49.201L93.353,49.201C93.178,49.201 93.03,49.14 92.908,49.017Z" style="fill:rgb(0,177,226);fill-rule:nonzero;"/>
        <path d="M138.013,42.91C139.061,42.107 139.586,41.076 139.586,39.818L139.586,37.931C139.586,37.756 139.498,37.669 139.323,37.669L135.55,37.669C133.977,37.669 132.745,37.966 131.854,38.56C130.963,39.155 130.517,39.993 130.517,41.076C130.517,42.019 130.849,42.762 131.513,43.304C132.177,43.846 133.068,44.116 134.187,44.116C135.689,44.116 136.965,43.715 138.013,42.91ZM141.315,23.018C143.098,23.804 144.487,24.879 145.483,26.242C146.479,27.605 146.977,29.125 146.977,30.802L146.977,48.572C146.977,48.747 146.915,48.895 146.793,49.017C146.67,49.14 146.522,49.201 146.348,49.201L140.215,49.201C140.039,49.201 139.891,49.14 139.769,49.017C139.646,48.895 139.586,48.747 139.586,48.572L139.586,46.842C139.586,46.737 139.551,46.667 139.481,46.632C139.411,46.598 139.341,46.632 139.271,46.737C137.803,48.659 135.445,49.62 132.195,49.62C129.468,49.62 127.267,48.957 125.59,47.628C123.913,46.3 123.074,44.344 123.074,41.757C123.074,39.067 124.018,36.979 125.905,35.493C127.792,34.009 130.483,33.266 133.977,33.266L139.323,33.266C139.498,33.266 139.586,33.179 139.586,33.004L139.586,31.851C139.586,30.697 139.236,29.798 138.537,29.151C137.838,28.505 136.79,28.181 135.392,28.181C134.309,28.181 133.409,28.374 132.693,28.758C131.976,29.143 131.513,29.684 131.304,30.383C131.199,30.768 130.97,30.942 130.623,30.907L124.28,30.068C123.86,29.999 123.668,29.841 123.703,29.597C123.842,28.129 124.428,26.801 125.459,25.613C126.489,24.425 127.852,23.499 129.548,22.835C131.242,22.171 133.138,21.839 135.235,21.839C137.506,21.839 139.533,22.232 141.315,23.018Z" style="fill:rgb(0,177,226);fill-rule:nonzero;"/>
        <path d="M165.821,27.998C165.698,28.121 165.55,28.181 165.375,28.181L160.343,28.181C160.168,28.181 160.081,28.269 160.081,28.443L160.081,39.556C160.081,40.709 160.317,41.566 160.789,42.124C161.26,42.684 162.021,42.963 163.069,42.963L164.798,42.963C164.973,42.963 165.121,43.024 165.244,43.146C165.366,43.269 165.428,43.418 165.428,43.592L165.428,48.572C165.428,48.957 165.218,49.183 164.798,49.253C163.331,49.323 162.283,49.358 161.654,49.358C158.753,49.358 156.586,48.878 155.154,47.916C153.721,46.956 152.987,45.147 152.953,42.491L152.953,28.443C152.953,28.269 152.865,28.181 152.69,28.181L149.703,28.181C149.527,28.181 149.379,28.121 149.257,27.998C149.134,27.876 149.073,27.728 149.073,27.552L149.073,22.887C149.073,22.713 149.134,22.564 149.257,22.441C149.379,22.319 149.527,22.258 149.703,22.258L152.69,22.258C152.865,22.258 152.953,22.171 152.953,21.996L152.953,15.758C152.953,15.584 153.013,15.436 153.136,15.313C153.258,15.191 153.406,15.129 153.581,15.129L159.452,15.129C159.627,15.129 159.775,15.191 159.898,15.313C160.02,15.436 160.081,15.584 160.081,15.758L160.081,21.996C160.081,22.171 160.168,22.258 160.343,22.258L165.375,22.258C165.55,22.258 165.698,22.319 165.821,22.441C165.943,22.564 166.004,22.713 166.004,22.887L166.004,27.552C166.004,27.728 165.943,27.876 165.821,27.998Z" style="fill:rgb(0,177,226);fill-rule:nonzero;"/>
        <path d="M183.983,42.91C185.031,42.107 185.556,41.076 185.556,39.818L185.556,37.931C185.556,37.756 185.468,37.669 185.293,37.669L181.519,37.669C179.947,37.669 178.715,37.966 177.824,38.56C176.933,39.155 176.487,39.993 176.487,41.076C176.487,42.019 176.819,42.762 177.483,43.304C178.146,43.846 179.038,44.116 180.157,44.116C181.659,44.116 182.935,43.715 183.983,42.91ZM187.285,23.018C189.068,23.804 190.457,24.879 191.452,26.242C192.448,27.605 192.947,29.125 192.947,30.802L192.947,48.572C192.947,48.747 192.885,48.895 192.763,49.017C192.64,49.14 192.492,49.201 192.317,49.201L186.184,49.201C186.009,49.201 185.861,49.14 185.739,49.017C185.616,48.895 185.556,48.747 185.556,48.572L185.556,46.842C185.556,46.737 185.521,46.667 185.451,46.632C185.381,46.598 185.311,46.632 185.241,46.737C183.773,48.659 181.415,49.62 178.165,49.62C175.439,49.62 173.237,48.957 171.56,47.628C169.883,46.3 169.044,44.344 169.044,41.757C169.044,39.067 169.988,36.979 171.875,35.493C173.762,34.009 176.452,33.266 179.947,33.266L185.293,33.266C185.468,33.266 185.556,33.179 185.556,33.004L185.556,31.851C185.556,30.697 185.206,29.798 184.507,29.151C183.808,28.505 182.759,28.181 181.362,28.181C180.279,28.181 179.379,28.374 178.663,28.758C177.946,29.143 177.483,29.684 177.274,30.383C177.169,30.768 176.941,30.942 176.592,30.907L170.249,30.068C169.83,29.999 169.638,29.841 169.673,29.597C169.812,28.129 170.398,26.801 171.429,25.613C172.459,24.425 173.822,23.499 175.517,22.835C177.212,22.171 179.108,21.839 181.205,21.839C183.476,21.839 185.503,22.232 187.285,23.018Z" style="fill:rgb(0,177,226);fill-rule:nonzero;"/>
        <path d="M3.519,46.031C4.025,46.123 4.485,46.216 5.083,46.307C30.809,51.416 69.098,44.651 74.023,32.179C77.888,22.101 56.305,14.967 31.085,15.842C30.579,15.842 30.119,15.842 29.613,15.934C43.051,17.268 55.154,22.607 50.322,30.937C45.029,40.049 22.617,46.123 3.519,46.031Z" style="fill:rgb(0,177,226);fill-rule:nonzero;"/>
        <path d="M205.055,48.231C203.202,47.27 201.761,45.907 200.731,44.142C199.699,42.378 199.184,40.342 199.184,38.036L199.184,23.621C199.184,21.35 199.699,19.341 200.731,17.593C201.761,15.846 203.202,14.492 205.055,13.531C206.907,12.57 209.056,12.089 211.502,12.089C213.947,12.089 216.097,12.561 217.949,13.504C219.801,14.448 221.243,15.776 222.274,17.488C223.304,19.201 223.82,21.175 223.82,23.411C223.82,23.587 223.767,23.726 223.663,23.831C223.558,23.935 223.436,23.988 223.296,23.988L220.623,24.145C220.273,24.145 220.098,23.988 220.098,23.673L220.098,23.516C220.098,21.035 219.312,19.052 217.74,17.567C216.167,16.082 214.087,15.339 211.502,15.339C208.916,15.339 206.837,16.091 205.265,17.593C203.692,19.096 202.905,21.071 202.905,23.516L202.905,38.193C202.905,40.639 203.692,42.614 205.265,44.116C206.837,45.619 208.916,46.37 211.502,46.37C214.087,46.37 216.167,45.628 217.74,44.142C219.312,42.657 220.098,40.675 220.098,38.193L220.098,38.088C220.098,37.774 220.273,37.616 220.623,37.616L223.296,37.774C223.645,37.774 223.82,37.931 223.82,38.245C223.82,40.517 223.304,42.517 222.274,44.247C221.243,45.977 219.801,47.314 217.949,48.257C216.097,49.201 213.947,49.672 211.502,49.672C209.056,49.672 206.907,49.192 205.055,48.231Z" style="fill:white;fill-rule:nonzero;"/>
        <path d="M229.324,48.624L229.324,23.149C229.324,22.8 229.498,22.625 229.848,22.625L232.521,22.625C232.87,22.625 233.046,22.8 233.046,23.149L233.046,48.624C233.046,48.974 232.87,49.148 232.521,49.148L229.848,49.148C229.498,49.148 229.324,48.974 229.324,48.624ZM229.219,17.016C228.659,16.458 228.38,15.758 228.38,14.92C228.38,14.047 228.659,13.339 229.219,12.797C229.777,12.255 230.477,11.984 231.316,11.984C232.154,11.984 232.853,12.255 233.412,12.797C233.971,13.339 234.251,14.047 234.251,14.92C234.251,15.758 233.971,16.458 233.412,17.016C232.853,17.576 232.154,17.855 231.316,17.855C230.477,17.855 229.777,17.576 229.219,17.016Z" style="fill:white;fill-rule:nonzero;"/>
        <path d="M251.968,25.77L246.045,25.77C245.905,25.77 245.835,25.84 245.835,25.98L245.835,41.443C245.835,43.12 246.21,44.3 246.962,44.981C247.713,45.662 248.893,46.003 250.5,46.003L251.811,46.003C252.16,46.003 252.335,46.178 252.335,46.527L252.335,48.676C252.335,49.026 252.16,49.201 251.811,49.201C251.392,49.235 250.744,49.253 249.871,49.253C247.355,49.253 245.45,48.781 244.158,47.838C242.864,46.894 242.218,45.147 242.218,42.596L242.218,25.98C242.218,25.84 242.148,25.77 242.009,25.77L238.811,25.77C238.461,25.77 238.287,25.596 238.287,25.246L238.287,23.202C238.287,22.853 238.461,22.677 238.811,22.677L242.009,22.677C242.148,22.677 242.218,22.608 242.218,22.468L242.218,16.387C242.218,16.038 242.393,15.863 242.742,15.863L245.311,15.863C245.66,15.863 245.835,16.038 245.835,16.387L245.835,22.468C245.835,22.608 245.905,22.677 246.045,22.677L251.968,22.677C252.317,22.677 252.492,22.853 252.492,23.202L252.492,25.246C252.492,25.596 252.317,25.77 251.968,25.77Z" style="fill:white;fill-rule:nonzero;"/>
        <path d="M261.795,26.845C260.66,27.736 259.917,28.933 259.568,30.435C259.359,31.169 259.219,32.358 259.148,34C259.148,34.14 259.219,34.209 259.359,34.209L272.934,34.209C273.074,34.209 273.144,34.14 273.144,34C273.074,32.427 272.969,31.309 272.83,30.645C272.445,29.072 271.668,27.823 270.497,26.897C269.326,25.972 267.85,25.508 266.068,25.508C264.355,25.508 262.931,25.954 261.795,26.845ZM276.813,35.153L276.813,36.83C276.813,37.18 276.638,37.354 276.289,37.354L259.359,37.354C259.219,37.354 259.148,37.425 259.148,37.564C259.219,39.486 259.323,40.727 259.463,41.286C259.846,42.858 260.669,44.099 261.927,45.007C263.185,45.916 264.792,46.37 266.749,46.37C268.217,46.37 269.509,46.038 270.628,45.374C271.746,44.711 272.62,43.767 273.249,42.544C273.459,42.229 273.703,42.16 273.983,42.334L276.027,43.54C276.306,43.715 276.376,43.959 276.237,44.273C275.363,45.951 274.052,47.27 272.306,48.231C270.558,49.192 268.549,49.672 266.277,49.672C263.796,49.637 261.717,49.043 260.04,47.89C258.363,46.737 257.157,45.13 256.423,43.068C255.794,41.39 255.48,38.979 255.48,35.834C255.48,34.367 255.506,33.17 255.558,32.244C255.611,31.318 255.741,30.488 255.951,29.754C256.545,27.483 257.742,25.665 259.542,24.302C261.341,22.939 263.516,22.258 266.068,22.258C269.247,22.258 271.694,23.062 273.406,24.669C275.118,26.277 276.184,28.548 276.604,31.483C276.743,32.462 276.813,33.685 276.813,35.153Z" style="fill:white;fill-rule:nonzero;"/>
        <path d="M59.848,47.301C55.384,74.362 32.006,58.208 26.483,39.386C18.475,19.827 25.609,-5.3 45.628,9.426C29.06,1.833 27.311,23.831 34.399,39.478C40.289,52.548 53.083,60.97 59.25,47.485C59.526,47.394 59.756,47.394 59.848,47.301Z" style="fill:white;fill-rule:nonzero;"/>
        <g transform="matrix(0.24,0,0,0.24,-5.04,-1.2)">
            <path d="M563.519,291.449C564.646,289.682 566.224,288.798 568.253,288.798L599.359,288.798C600.486,288.798 601.444,289.184 602.233,289.958C603.022,290.731 603.416,291.67 603.416,292.775L603.416,516.856C603.416,517.961 603.022,518.9 602.233,519.673C601.444,520.447 600.486,520.833 599.359,520.833L568.253,520.833C567.126,520.833 566.168,520.447 565.379,519.673C564.59,518.9 564.195,517.961 564.195,516.856L564.195,358.74C564.195,358.077 563.914,357.635 563.35,357.414C562.787,357.193 562.392,357.414 562.167,358.077L519.903,421.721C518.776,423.489 517.198,424.373 515.17,424.373L499.617,424.373C497.588,424.373 496.01,423.489 494.883,421.721L452.281,358.408C452.056,357.745 451.661,357.524 451.098,357.745C450.534,357.966 450.253,358.408 450.253,359.071L450.253,516.856C450.253,517.961 449.858,518.9 449.069,519.673C448.28,520.447 447.322,520.833 446.195,520.833L415.089,520.833C413.962,520.833 413.004,520.447 412.215,519.673C411.426,518.9 411.032,517.961 411.032,516.856L411.032,292.775C411.032,291.67 411.426,290.731 412.215,289.958C413.004,289.184 413.962,288.798 415.089,288.798L446.195,288.798C448.224,288.798 449.802,289.682 450.929,291.449L506.041,373.325C506.491,373.767 506.942,373.988 507.393,373.988C507.844,373.988 508.182,373.767 508.407,373.325L563.519,291.449Z" style="fill:white;fill-rule:nonzero;"/>
            <path d="M777.88,417.08C778.782,422.605 779.233,428.793 779.233,435.643L778.895,445.919C778.895,448.571 777.542,449.897 774.837,449.897L669.009,449.897C667.882,449.897 667.319,450.449 667.319,451.554C667.995,458.847 669.009,463.819 670.362,466.471C675.771,482.382 688.958,490.448 709.92,490.669C725.248,490.669 737.42,484.481 746.436,472.106C747.338,470.78 748.465,470.117 749.817,470.117C750.719,470.117 751.508,470.448 752.184,471.111L773.147,488.017C775.176,489.564 775.514,491.332 774.161,493.321C767.174,503.044 757.876,510.557 746.267,515.861C734.659,521.165 721.754,523.817 707.554,523.817C689.972,523.817 675.039,519.949 662.754,512.215C650.47,504.48 641.51,493.652 635.875,479.73C630.69,467.797 628.098,451.223 628.098,430.008C628.098,417.191 629.45,406.804 632.155,398.849C636.663,383.38 645.173,371.17 657.683,362.22C670.193,353.27 685.238,348.795 702.82,348.795C747.225,348.795 772.245,371.557 777.88,417.08ZM702.82,381.943C694.48,381.943 687.549,383.988 682.026,388.076C676.504,392.164 672.616,397.854 670.362,405.147C669.009,408.904 668.108,413.765 667.657,419.732C667.206,420.837 667.657,421.389 669.009,421.389L737.645,421.389C738.772,421.389 739.336,420.837 739.336,419.732C738.885,414.207 738.209,410.009 737.307,407.136C735.279,399.18 731.278,392.993 725.304,388.573C719.331,384.153 711.836,381.943 702.82,381.943Z" style="fill:white;fill-rule:nonzero;"/>
            <path d="M886.48,378.629C886.48,379.734 886.085,380.673 885.296,381.446C884.507,382.22 883.549,382.606 882.422,382.606L847.935,382.606C846.808,382.606 846.245,383.159 846.245,384.264L846.245,464.15C846.245,472.548 848.104,478.625 851.824,482.382C855.543,486.138 861.46,488.017 869.574,488.017L879.718,488.017C880.845,488.017 881.803,488.404 882.591,489.177C883.38,489.95 883.775,490.89 883.775,491.995L883.775,516.856C883.775,519.286 882.422,520.723 879.718,521.165L862.136,521.496C844.329,521.496 831.03,518.513 822.239,512.546C813.448,506.58 808.94,495.309 808.715,478.735L808.715,384.264C808.715,383.159 808.151,382.606 807.024,382.606L787.752,382.606C786.625,382.606 785.667,382.22 784.878,381.446C784.089,380.673 783.695,379.734 783.695,378.629L783.695,355.425C783.695,354.32 784.089,353.381 784.878,352.607C785.667,351.834 786.625,351.447 787.752,351.447L807.024,351.447C808.151,351.447 808.715,350.895 808.715,349.79L808.715,311.007C808.715,309.902 809.109,308.963 809.898,308.189C810.687,307.416 811.645,307.029 812.772,307.029L842.187,307.029C843.314,307.029 844.272,307.416 845.061,308.189C845.85,308.963 846.245,309.902 846.245,311.007L846.245,349.79C846.245,350.895 846.808,351.447 847.935,351.447L882.422,351.447C883.549,351.447 884.507,351.834 885.296,352.607C886.085,353.381 886.48,354.32 886.48,355.425L886.48,378.629Z" style="fill:white;fill-rule:nonzero;"/>
            <path d="M970.331,348.795C984.531,348.795 997.041,351.226 1007.86,356.088C1018.68,360.95 1027.02,367.635 1032.88,376.142C1038.74,384.65 1041.67,394.319 1041.67,405.147L1041.67,516.856C1041.67,517.961 1041.28,518.9 1040.49,519.673C1039.7,520.447 1038.74,520.833 1037.62,520.833L1006.51,520.833C1005.38,520.833 1004.42,520.447 1003.63,519.673C1002.85,518.9 1002.45,517.961 1002.45,516.856L1002.45,506.248C1002.45,505.585 1002.23,505.199 1001.77,505.088C1001.32,504.978 1000.87,505.143 1000.42,505.585C989.378,517.519 973.374,523.485 952.411,523.485C935.506,523.485 921.587,519.286 910.655,510.889C899.722,502.491 894.256,490.006 894.256,473.432C894.256,456.195 900.399,442.77 912.683,433.157C924.968,423.544 942.268,418.738 964.583,418.738L1000.76,418.738C1001.89,418.738 1002.45,418.185 1002.45,417.08L1002.45,409.125C1002.45,400.506 999.859,393.821 994.675,389.07C989.49,384.319 981.714,381.943 971.345,381.943C962.78,381.943 955.848,383.435 950.551,386.418C945.254,389.402 941.93,393.545 940.577,398.849C939.901,401.501 938.323,402.606 935.844,402.164L903.047,398.186C901.92,397.965 900.962,397.578 900.173,397.026C899.384,396.473 899.102,395.755 899.328,394.871C901.131,381.391 908.513,370.342 921.474,361.723C934.435,353.105 950.72,348.795 970.331,348.795ZM962.216,492.989C973.261,492.989 982.728,490.116 990.617,484.371C998.507,478.625 1002.45,471.332 1002.45,462.493L1002.45,446.913C1002.45,445.808 1001.89,445.256 1000.76,445.256L972.359,445.256C960.413,445.256 951.002,447.466 944.127,451.886C937.252,456.305 933.815,462.603 933.815,470.78C933.815,477.851 936.464,483.321 941.761,487.188C947.058,491.055 953.876,492.989 962.216,492.989Z" style="fill:white;fill-rule:nonzero;"/>
            <path d="M1171.17,292.775C1171.17,291.67 1171.56,290.731 1172.35,289.958C1173.14,289.184 1174.1,288.798 1175.23,288.798L1206.33,288.798C1207.46,288.798 1208.42,289.184 1209.2,289.958C1209.99,290.731 1210.39,291.67 1210.39,292.775L1210.39,516.856C1210.39,517.961 1209.99,518.9 1209.2,519.673C1208.42,520.447 1207.46,520.833 1206.33,520.833L1175.23,520.833C1174.1,520.833 1173.14,520.447 1172.35,519.673C1171.56,518.9 1171.17,517.961 1171.17,516.856L1171.17,506.911C1171.17,506.248 1170.94,505.806 1170.49,505.585C1170.04,505.364 1169.59,505.585 1169.14,506.248C1159.22,517.74 1146.26,523.485 1130.26,523.485C1114.25,523.485 1100.73,519.397 1089.68,511.22C1078.64,503.044 1070.64,491.663 1065.68,477.078C1061.62,464.703 1059.59,450.891 1059.59,435.643C1059.59,419.953 1061.51,406.473 1065.34,395.203C1070.3,380.617 1078.3,369.237 1089.35,361.06C1100.39,352.884 1114.25,348.795 1130.93,348.795C1146.49,348.795 1159.22,354.32 1169.14,365.369C1169.59,365.811 1170.04,365.977 1170.49,365.867C1170.94,365.756 1171.17,365.369 1171.17,364.706L1171.17,292.775ZM1163.05,474.426C1168.24,465.366 1170.83,452.549 1170.83,435.975C1170.83,418.738 1168.01,405.589 1162.38,396.528C1156.29,386.805 1147.73,381.943 1136.68,381.943C1125.18,381.943 1116.17,386.584 1109.63,395.866C1102.87,405.589 1099.49,419.069 1099.49,436.306C1099.49,451.775 1102.19,464.482 1107.6,474.426C1113.91,485.034 1123.49,490.337 1136.34,490.337C1147.84,490.337 1156.74,485.034 1163.05,474.426Z" style="fill:white;fill-rule:nonzero;"/>
            <path d="M1302.02,348.795C1316.22,348.795 1328.73,351.226 1339.55,356.088C1350.37,360.95 1358.71,367.635 1364.57,376.142C1370.43,384.65 1373.36,394.319 1373.36,405.147L1373.36,516.856C1373.36,517.961 1372.96,518.9 1372.17,519.673C1371.38,520.447 1370.43,520.833 1369.3,520.833L1338.19,520.833C1337.07,520.833 1336.11,520.447 1335.32,519.673C1334.53,518.9 1334.14,517.961 1334.14,516.856L1334.14,506.248C1334.14,505.585 1333.91,505.199 1333.46,505.088C1333.01,504.978 1332.56,505.143 1332.11,505.585C1321.06,517.519 1305.06,523.485 1284.1,523.485C1267.19,523.485 1253.27,519.286 1242.34,510.889C1231.41,502.491 1225.94,490.006 1225.94,473.432C1225.94,456.195 1232.08,442.77 1244.37,433.157C1256.65,423.544 1273.95,418.738 1296.27,418.738L1332.45,418.738C1333.57,418.738 1334.14,418.185 1334.14,417.08L1334.14,409.125C1334.14,400.506 1331.54,393.821 1326.36,389.07C1321.17,384.319 1313.4,381.943 1303.03,381.943C1294.46,381.943 1287.53,383.435 1282.24,386.418C1276.94,389.402 1273.62,393.545 1272.26,398.849C1271.59,401.501 1270.01,402.606 1267.53,402.164L1234.73,398.186C1233.61,397.965 1232.65,397.578 1231.86,397.026C1231.07,396.473 1230.79,395.755 1231.01,394.871C1232.82,381.391 1240.2,370.342 1253.16,361.723C1266.12,353.105 1282.41,348.795 1302.02,348.795ZM1293.9,492.989C1304.95,492.989 1314.41,490.116 1322.3,484.371C1330.19,478.625 1334.14,471.332 1334.14,462.493L1334.14,446.913C1334.14,445.808 1333.57,445.256 1332.45,445.256L1304.05,445.256C1292.1,445.256 1282.69,447.466 1275.81,451.886C1268.94,456.305 1265.5,462.603 1265.5,470.78C1265.5,477.851 1268.15,483.321 1273.45,487.188C1278.74,491.055 1285.56,492.989 1293.9,492.989Z" style="fill:white;fill-rule:nonzero;"/>
            <path d="M1484.65,378.629C1484.65,379.734 1484.25,380.673 1483.46,381.446C1482.68,382.22 1481.72,382.606 1480.59,382.606L1446.1,382.606C1444.98,382.606 1444.41,383.159 1444.41,384.264L1444.41,464.15C1444.41,472.548 1446.27,478.625 1449.99,482.382C1453.71,486.138 1459.63,488.017 1467.74,488.017L1477.89,488.017C1479.01,488.017 1479.97,488.404 1480.76,489.177C1481.55,489.95 1481.94,490.89 1481.94,491.995L1481.94,516.856C1481.94,519.286 1480.59,520.723 1477.89,521.165L1460.3,521.496C1442.5,521.496 1429.2,518.513 1420.41,512.546C1411.62,506.58 1407.11,495.309 1406.88,478.735L1406.88,384.264C1406.88,383.159 1406.32,382.606 1405.19,382.606L1385.92,382.606C1384.79,382.606 1383.84,382.22 1383.05,381.446C1382.26,380.673 1381.86,379.734 1381.86,378.629L1381.86,355.425C1381.86,354.32 1382.26,353.381 1383.05,352.607C1383.84,351.834 1384.79,351.447 1385.92,351.447L1405.19,351.447C1406.32,351.447 1406.88,350.895 1406.88,349.79L1406.88,311.007C1406.88,309.902 1407.28,308.963 1408.07,308.189C1408.86,307.416 1409.81,307.029 1410.94,307.029L1440.36,307.029C1441.48,307.029 1442.44,307.416 1443.23,308.189C1444.02,308.963 1444.41,309.902 1444.41,311.007L1444.41,349.79C1444.41,350.895 1444.98,351.447 1446.1,351.447L1480.59,351.447C1481.72,351.447 1482.68,351.834 1483.46,352.607C1484.25,353.381 1484.65,354.32 1484.65,355.425L1484.65,378.629Z" style="fill:white;fill-rule:nonzero;"/>
            <path d="M1568.5,348.795C1582.7,348.795 1595.21,351.226 1606.03,356.088C1616.85,360.95 1625.19,367.635 1631.05,376.142C1636.91,384.65 1639.84,394.319 1639.84,405.147L1639.84,516.856C1639.84,517.961 1639.45,518.9 1638.66,519.673C1637.87,520.447 1636.91,520.833 1635.78,520.833L1604.68,520.833C1603.55,520.833 1602.59,520.447 1601.8,519.673C1601.01,518.9 1600.62,517.961 1600.62,516.856L1600.62,506.248C1600.62,505.585 1600.39,505.199 1599.94,505.088C1599.49,504.978 1599.04,505.143 1598.59,505.585C1587.55,517.519 1571.54,523.485 1550.58,523.485C1533.67,523.485 1519.76,519.286 1508.82,510.889C1497.89,502.491 1492.42,490.006 1492.42,473.432C1492.42,456.195 1498.57,442.77 1510.85,433.157C1523.14,423.544 1540.44,418.738 1562.75,418.738L1598.93,418.738C1600.06,418.738 1600.62,418.185 1600.62,417.08L1600.62,409.125C1600.62,400.506 1598.03,393.821 1592.84,389.07C1587.66,384.319 1579.88,381.943 1569.51,381.943C1560.95,381.943 1554.02,383.435 1548.72,386.418C1543.42,389.402 1540.1,393.545 1538.75,398.849C1538.07,401.501 1536.49,402.606 1534.01,402.164L1501.21,398.186C1500.09,397.965 1499.13,397.578 1498.34,397.026C1497.55,396.473 1497.27,395.755 1497.5,394.871C1499.3,381.391 1506.68,370.342 1519.64,361.723C1532.6,353.105 1548.89,348.795 1568.5,348.795ZM1560.38,492.989C1571.43,492.989 1580.9,490.116 1588.79,484.371C1596.67,478.625 1600.62,471.332 1600.62,462.493L1600.62,446.913C1600.62,445.808 1600.06,445.256 1598.93,445.256L1570.53,445.256C1558.58,445.256 1549.17,447.466 1542.3,451.886C1535.42,456.305 1531.98,462.603 1531.98,470.78C1531.98,477.851 1534.63,483.321 1539.93,487.188C1545.23,491.055 1552.04,492.989 1560.38,492.989Z" style="fill:white;fill-rule:nonzero;"/>
            <path d="M1793,523.485C1775.42,523.485 1760.09,520.723 1747.02,515.198C1733.95,509.674 1723.86,501.939 1716.76,491.995C1709.66,482.05 1706.11,470.338 1706.11,456.858L1706.11,448.571C1706.11,447.466 1706.5,446.527 1707.29,445.753C1708.08,444.98 1709.04,444.593 1710.17,444.593L1740.26,444.593C1741.38,444.593 1742.34,444.98 1743.13,445.753C1743.92,446.527 1744.32,447.466 1744.32,448.571L1744.32,454.869C1744.32,465.034 1748.94,473.487 1758.18,480.227C1767.42,486.967 1780.04,490.337 1796.05,490.337C1809.8,490.337 1820.16,487.464 1827.15,481.719C1834.14,475.973 1837.63,468.57 1837.63,459.51C1837.63,453.322 1835.72,448.074 1831.89,443.764C1828.05,439.455 1822.59,435.533 1815.49,431.997C1808.39,428.461 1797.74,424.041 1783.54,418.738C1767.53,412.992 1754.57,407.578 1744.65,402.495C1734.74,397.412 1726.45,390.507 1719.8,381.778C1713.15,373.049 1709.83,362.165 1709.83,349.127C1709.83,329.68 1717.04,314.322 1731.47,303.051C1745.89,291.781 1765.17,286.146 1789.28,286.146C1806.19,286.146 1821.12,289.019 1834.08,294.764C1847.05,300.51 1857.13,308.521 1864.34,318.797C1871.56,329.072 1875.16,340.95 1875.16,354.431L1875.16,360.066C1875.16,361.171 1874.77,362.11 1873.98,362.883C1873.19,363.657 1872.23,364.043 1871.11,364.043L1840.68,364.043C1839.55,364.043 1838.59,363.657 1837.8,362.883C1837.01,362.11 1836.62,361.171 1836.62,360.066L1836.62,356.419C1836.62,346.033 1832.28,337.249 1823.6,330.067C1814.92,322.885 1802.92,319.294 1787.59,319.294C1775.2,319.294 1765.56,321.835 1758.68,326.918C1751.81,332 1748.37,339.183 1748.37,348.464C1748.37,355.094 1750.18,360.508 1753.78,364.706C1757.39,368.905 1762.8,372.717 1770.01,376.142C1777.23,379.568 1788.38,383.932 1803.49,389.236C1819.49,395.203 1832.28,400.617 1841.86,405.478C1851.44,410.34 1859.67,417.135 1866.54,425.864C1873.42,434.593 1876.86,445.477 1876.86,458.515C1876.86,478.404 1869.36,494.204 1854.37,505.917C1839.38,517.629 1818.92,523.485 1793,523.485Z" style="fill:white;fill-rule:nonzero;"/>
            <path d="M1967.81,523.485C1950.45,523.485 1935.46,519.121 1922.84,510.392C1910.22,501.663 1901.42,489.895 1896.47,475.089C1892.86,465.145 1891.06,451.886 1891.06,435.312C1891.06,419.401 1892.86,406.362 1896.47,396.197C1901.2,381.612 1909.93,370.065 1922.67,361.557C1935.4,353.049 1950.45,348.795 1967.81,348.795C1985.39,348.795 2000.72,353.105 2013.79,361.723C2026.86,370.342 2035.54,381.17 2039.82,394.208C2040.95,397.744 2041.74,401.28 2042.19,404.815L2042.19,405.478C2042.19,407.688 2040.95,409.014 2038.47,409.456L2008.04,413.765L2007.37,413.765C2005.34,413.765 2003.98,412.66 2003.31,410.451C2003.31,409.346 2003.19,408.462 2002.97,407.799C2002.52,406.031 2002.07,404.484 2001.62,403.158C1999.59,396.97 1995.53,391.888 1989.44,387.91C1983.36,383.932 1976.15,381.943 1967.81,381.943C1959.24,381.943 1951.97,384.098 1946,388.407C1940.03,392.716 1936.02,398.628 1934,406.141C1931.74,413.213 1930.61,423.047 1930.61,435.643C1930.61,447.797 1931.63,457.631 1933.66,465.145C1935.91,472.879 1939.97,479.012 1945.83,483.542C1951.69,488.072 1959.02,490.337 1967.81,490.337C1976.37,490.337 1983.75,488.183 1989.95,483.873C1996.15,479.564 2000.15,473.763 2001.96,466.471C2002.18,466.029 2002.29,465.476 2002.29,464.813C2002.52,464.592 2002.63,464.261 2002.63,463.819C2003.31,461.167 2004.88,460.062 2007.37,460.504L2037.79,465.145C2038.92,465.366 2039.88,465.863 2040.67,466.636C2041.46,467.41 2041.74,468.46 2041.51,469.785C2040.84,473.321 2040.27,475.863 2039.82,477.41C2035.54,491.553 2026.86,502.768 2013.79,511.055C2000.72,519.342 1985.39,523.485 1967.81,523.485Z" style="fill:white;fill-rule:nonzero;"/>
            <path d="M2141.26,348.795C2159.51,348.795 2174.11,354.099 2185.04,364.706C2195.97,375.314 2201.44,389.788 2201.44,408.13L2201.44,516.856C2201.44,517.961 2201.05,518.9 2200.26,519.673C2199.47,520.447 2198.51,520.833 2197.38,520.833L2166.28,520.833C2165.15,520.833 2164.19,520.447 2163.4,519.673C2162.61,518.9 2162.22,517.961 2162.22,516.856L2162.22,416.086C2162.22,405.92 2159.29,397.689 2153.43,391.391C2147.57,385.092 2139.79,381.943 2130.1,381.943C2120.41,381.943 2112.57,385.037 2106.6,391.225C2100.63,397.412 2097.64,405.589 2097.64,415.754L2097.64,516.856C2097.64,517.961 2097.24,518.9 2096.46,519.673C2095.67,520.447 2094.71,520.833 2093.58,520.833L2062.48,520.833C2061.35,520.833 2060.39,520.447 2059.6,519.673C2058.81,518.9 2058.42,517.961 2058.42,516.856L2058.42,292.775C2058.42,291.67 2058.81,290.731 2059.6,289.958C2060.39,289.184 2061.35,288.798 2062.48,288.798L2093.58,288.798C2094.71,288.798 2095.67,289.184 2096.46,289.958C2097.24,290.731 2097.64,291.67 2097.64,292.775L2097.64,366.032C2097.64,366.695 2097.87,367.137 2098.32,367.358C2098.77,367.579 2099.11,367.358 2099.33,366.695C2108.57,354.762 2122.55,348.795 2141.26,348.795Z" style="fill:white;fill-rule:nonzero;"/>
            <path d="M2369.84,417.08C2370.75,422.605 2371.2,428.793 2371.2,435.643L2370.86,445.919C2370.86,448.571 2369.51,449.897 2366.8,449.897L2260.97,449.897C2259.85,449.897 2259.28,450.449 2259.28,451.554C2259.96,458.847 2260.97,463.819 2262.33,466.471C2267.74,482.382 2280.92,490.448 2301.88,490.669C2317.21,490.669 2329.38,484.481 2338.4,472.106C2339.3,470.78 2340.43,470.117 2341.78,470.117C2342.68,470.117 2343.47,470.448 2344.15,471.111L2365.11,488.017C2367.14,489.564 2367.48,491.332 2366.12,493.321C2359.14,503.044 2349.84,510.557 2338.23,515.861C2326.62,521.165 2313.72,523.817 2299.52,523.817C2281.94,523.817 2267,519.949 2254.72,512.215C2242.43,504.48 2233.47,493.652 2227.84,479.73C2222.65,467.797 2220.06,451.223 2220.06,430.008C2220.06,417.191 2221.41,406.804 2224.12,398.849C2228.63,383.38 2237.14,371.17 2249.65,362.22C2262.16,353.27 2277.2,348.795 2294.78,348.795C2339.19,348.795 2364.21,371.557 2369.84,417.08ZM2294.78,381.943C2286.44,381.943 2279.51,383.988 2273.99,388.076C2268.47,392.164 2264.58,397.854 2262.33,405.147C2260.97,408.904 2260.07,413.765 2259.62,419.732C2259.17,420.837 2259.62,421.389 2260.97,421.389L2329.61,421.389C2330.74,421.389 2331.3,420.837 2331.3,419.732C2330.85,414.207 2330.17,410.009 2329.27,407.136C2327.24,399.18 2323.24,392.993 2317.27,388.573C2311.3,384.153 2303.8,381.943 2294.78,381.943Z" style="fill:white;fill-rule:nonzero;"/>
            <path d="M2575.08,348.795C2592.43,348.795 2606.01,353.933 2615.82,364.209C2625.62,374.485 2630.53,388.794 2630.53,407.136L2630.53,516.856C2630.53,517.961 2630.13,518.9 2629.34,519.673C2628.55,520.447 2627.6,520.833 2626.47,520.833L2595.7,520.833C2594.57,520.833 2593.62,520.447 2592.83,519.673C2592.04,518.9 2591.64,517.961 2591.64,516.856L2591.64,415.091C2591.64,404.926 2588.88,396.86 2583.36,390.893C2577.84,384.927 2570.46,381.943 2561.21,381.943C2551.97,381.943 2544.42,384.927 2538.56,390.893C2532.7,396.86 2529.77,404.815 2529.77,414.76L2529.77,516.856C2529.77,517.961 2529.38,518.9 2528.59,519.673C2527.8,520.447 2526.84,520.833 2525.71,520.833L2494.95,520.833C2493.82,520.833 2492.86,520.447 2492.07,519.673C2491.28,518.9 2490.89,517.961 2490.89,516.856L2490.89,415.091C2490.89,404.926 2488.07,396.86 2482.43,390.893C2476.8,384.927 2469.36,381.943 2460.12,381.943C2451.55,381.943 2444.51,384.374 2438.99,389.236C2433.47,394.098 2430.25,400.727 2429.35,409.125L2429.35,516.856C2429.35,517.961 2428.96,518.9 2428.17,519.673C2427.38,520.447 2426.42,520.833 2425.29,520.833L2394.19,520.833C2393.06,520.833 2392.1,520.447 2391.31,519.673C2390.53,518.9 2390.13,517.961 2390.13,516.856L2390.13,355.425C2390.13,354.32 2390.53,353.381 2391.31,352.607C2392.1,351.834 2393.06,351.447 2394.19,351.447L2425.29,351.447C2426.42,351.447 2427.38,351.834 2428.17,352.607C2428.96,353.381 2429.35,354.32 2429.35,355.425L2429.35,366.364C2429.35,367.027 2429.58,367.469 2430.03,367.69C2430.48,367.911 2430.93,367.69 2431.38,367.027C2436.34,360.839 2442.48,356.254 2449.81,353.27C2457.13,350.287 2465.3,348.795 2474.32,348.795C2485.37,348.795 2495.06,351.005 2503.4,355.425C2511.74,359.845 2518.16,366.253 2522.67,374.651C2523.35,375.535 2524.14,375.535 2525.04,374.651C2529.99,365.811 2536.87,359.292 2545.66,355.094C2554.45,350.895 2564.26,348.795 2575.08,348.795Z" style="fill:white;fill-rule:nonzero;"/>
            <path d="M2719.45,348.795C2733.65,348.795 2746.16,351.226 2756.98,356.088C2767.8,360.95 2776.14,367.635 2782,376.142C2787.86,384.65 2790.79,394.319 2790.79,405.147L2790.79,516.856C2790.79,517.961 2790.4,518.9 2789.61,519.673C2788.82,520.447 2787.86,520.833 2786.73,520.833L2755.63,520.833C2754.5,520.833 2753.54,520.447 2752.75,519.673C2751.96,518.9 2751.57,517.961 2751.57,516.856L2751.57,506.248C2751.57,505.585 2751.34,505.199 2750.89,505.088C2750.44,504.978 2749.99,505.143 2749.54,505.585C2738.5,517.519 2722.49,523.485 2701.53,523.485C2684.62,523.485 2670.7,519.286 2659.77,510.889C2648.84,502.491 2643.38,490.006 2643.38,473.432C2643.38,456.195 2649.52,442.77 2661.8,433.157C2674.09,423.544 2691.39,418.738 2713.7,418.738L2749.88,418.738C2751.01,418.738 2751.57,418.185 2751.57,417.08L2751.57,409.125C2751.57,400.506 2748.98,393.821 2743.79,389.07C2738.61,384.319 2730.83,381.943 2720.46,381.943C2711.9,381.943 2704.97,383.435 2699.67,386.418C2694.37,389.402 2691.05,393.545 2689.7,398.849C2689.02,401.501 2687.44,402.606 2684.96,402.164L2652.16,398.186C2651.04,397.965 2650.08,397.578 2649.29,397.026C2648.5,396.473 2648.22,395.755 2648.45,394.871C2650.25,381.391 2657.63,370.342 2670.59,361.723C2683.55,353.105 2699.84,348.795 2719.45,348.795ZM2711.33,492.989C2722.38,492.989 2731.85,490.116 2739.74,484.371C2747.62,478.625 2751.57,471.332 2751.57,462.493L2751.57,446.913C2751.57,445.808 2751.01,445.256 2749.88,445.256L2721.48,445.256C2709.53,445.256 2700.12,447.466 2693.25,451.886C2686.37,456.305 2682.93,462.603 2682.93,470.78C2682.93,477.851 2685.58,483.321 2690.88,487.188C2696.18,491.055 2702.99,492.989 2711.33,492.989Z" style="fill:white;fill-rule:nonzero;"/>
        </g>
    </g>
</svg>
